<?xml version="1.0" encoding="utf-8"?>
<!-- Generator: Adobe Illustrator 19.2.0, SVG Export Plug-In . SVG Version: 6.00 Build 0)  -->
<!DOCTYPE svg PUBLIC "-//W3C//DTD SVG 1.1//EN" "http://www.w3.org/Graphics/SVG/1.1/DTD/svg11.dtd">
<svg version="1.1" id="Capa_1" xmlns="http://www.w3.org/2000/svg" xmlns:xlink="http://www.w3.org/1999/xlink" x="0px" y="0px"
	 viewBox="0 0 417.8 417.8" enable-background="new 0 0 417.8 417.8" xml:space="preserve">
<g>
	<g>
		<path fill-rule="evenodd" clip-rule="evenodd" fill="#5E98CF" d="M208.9,153.9c-30.4,0-55,24.6-55,55c0,9.9,2.6,19.2,7.3,27.3
			l95.3-54.9C246.9,164.9,229.2,153.9,208.9,153.9z"/>
		<path fill-rule="evenodd" clip-rule="evenodd" fill="#5E98CF" d="M98.5,208.9c0-61,49.4-110.4,110.4-110.4
			c40.8,0,76.5,22.2,95.6,55.2l66.5-38.3c-2.7-4.7-6.7-8.6-12-11.7c-44.3-25.5-88.6-51-132.8-76.5c-11.9-6.9-23.5-6.6-35.3,0.3
			C173.3,37.8,85,88.4,58.8,103.6c-10.8,6.3-16.1,15.9-16.1,28.3c0,51.3,0,102.6,0,154c0,6.1,1.3,11.6,3.9,16.3l66.6-38.3
			C103.8,247.6,98.5,228.9,98.5,208.9z"/>
	</g>
	<g>
		<path fill="#044E87" d="M161.2,236.2c9.5,16.5,27.3,27.7,47.7,27.7c20.6,0,38.5-11.3,47.9-28l-47.4-27.5L161.2,236.2z"/>
		<path fill="#044E87" d="M208.9,319.3c-41,0-76.7-22.3-95.8-55.5l-66.6,38.3c2.7,4.8,6.7,8.9,12.2,12
			c26.3,15.2,114.5,65.8,132.1,76.1c11.8,7,23.4,7.2,35.3,0.3c44.2-25.5,88.6-51,132.8-76.5c5.5-3.2,9.5-7.2,12.2-12l-66.5-38.5
			C285.7,296.9,249.9,319.3,208.9,319.3z"/>
	</g>
	<path fill="#0062A2" d="M375.1,131.9c0-6.3-1.3-11.8-4.1-16.6l-161.6,93.1l161.8,93.8c2.6-4.7,3.9-10.1,3.9-16.3
		C375.1,285.9,375.1,183.2,375.1,131.9z M320.1,215.1h-12.6v12.6h-12.6v-12.6h-12.6v-12.6h12.6v-12.6h12.6v12.6h12.6V215.1z
		 M366.2,215.1h-12.6v12.6h-12.6v-12.6h-12.6v-12.6h12.6v-12.6h12.6v12.6h12.6V215.1z"/>
	<g>
		<polygon fill="#FFFFFF" points="353.6,189.8 340.9,189.8 340.9,202.4 328.3,202.4 328.3,215.1 340.9,215.1 340.9,227.7 
			353.6,227.7 353.6,215.1 366.2,215.1 366.2,202.4 353.6,202.4 		"/>
		<polygon fill="#FFFFFF" points="307.4,189.8 294.8,189.8 294.8,202.4 282.1,202.4 282.1,215.1 294.8,215.1 294.8,227.7 
			307.4,227.7 307.4,215.1 320.1,215.1 320.1,202.4 307.4,202.4 		"/>
		<path fill="#FFFFFF" d="M256.8,235.8c-9.4,16.7-27.3,28-47.9,28c-20.4,0-38.2-11.2-47.7-27.7c-4.6-8-7.3-17.3-7.3-27.3
			c0-30.4,24.6-55,55-55c20.3,0,38,11,47.5,27.4l48.1-27.7c-19.1-33-54.8-55.2-95.6-55.2c-61,0-110.4,49.4-110.4,110.4
			c0,20,5.3,38.8,14.6,54.9c19.1,33.1,54.8,55.5,95.8,55.5c41,0,76.9-22.4,95.9-55.6L256.8,235.8z"/>
	</g>
</g>
</svg>
