<?xml version="1.0" encoding="utf-8"?>
<!-- Generator: Adobe Illustrator 19.1.1, SVG Export Plug-In . SVG Version: 6.00 Build 0)  -->
<!DOCTYPE svg PUBLIC "-//W3C//DTD SVG 1.1//EN" "http://www.w3.org/Graphics/SVG/1.1/DTD/svg11.dtd">
<svg version="1.1" id="Layer_1" xmlns="http://www.w3.org/2000/svg" xmlns:xlink="http://www.w3.org/1999/xlink" x="0px" y="0px"
	 viewBox="0 0 696.7 558.7" enable-background="new 0 0 696.7 558.7" xml:space="preserve">
<g id="XMLID_1_">
	<g id="XMLID_3_">
		<path id="XMLID_60_" fill="#F9E3D2" d="M126.2,353.8c15.4-8,26.7-17.8,36.5-14.9c11.2,3.3,10.2,11.5,3,20.2
			c-6.2,7.4-4.3,29.1-2.5,39.1c2.5,13.9,3.6,15.8,15.3,28c7.2,7.5,15.3,20.9,18.8,45.5c2.2,15.7-2.2,32.5-15.5,52.2
			c-6.4,9.5-18.9,16.5-29.6,17.6c-16,1.6-32.9,0-49.2,0c-17.9,0-30.8-6.2-38.7-23.5c-9.5-20.9-15-43.7-5.7-67.1
			c8.3-21,11.2-22.1,18.2-31.4c4.5-5.9,10.5-13.6,10.4-21.1c-0.3-18.1-9-19.6,2.3-29.8C99.6,359.1,114.5,359.9,126.2,353.8z"/>
		<path id="XMLID_59_" fill="#F9E3D2" d="M87.1,414.3c1.5-8.3-17.1-18.9-24.5-21.2c-12.6-3.8-25.2,0.5-35.8,7.8
			c-9.6,6.6-14.1,17.4-13.9,28.7c0.2,12.2,10.8,20.9,19.9,27.9c9.6,7.3,20,13.6,30,20.3c3.1-4.6,3.5-10.8,3-16.2
			c-15.4-1.3-43.3-22.9-39.7-40.5c1.8-8.8,13.6-15.3,21.9-16.4c10.9-1.4,19.2,5,27.2,11.9c2.9,2.6,6.8,7.2,8.6,9.1L87.1,414.3z"/>
		<path id="XMLID_58_" fill="#DC7676" d="M160.1,410.8c0,0,8.6,19,13.9,27.3c6.1,9.6,10.3,18.5,12.1,29.6
			c3.3,20.4-4.7,50.3-23.9,61.7c-9.9,5.9-20.3,0.6-31.8,0c-12.2-0.6-16.6,0.4-28.5,2.3c-12.6,2.1-23.1-6.1-28.6-16.7
			c-4.9-9.4-6.3-14.7-7.7-25.4c-2.2-15.8,0.3-30.1,3.6-39.7c2.2-6.4,8.6-16.7,12-22.6c4.8-8.4,10.8-17.6,10.8-17.6
			c5.5-3.4,14.4-0.2,20.1,1c8,1.7,16,4,24.2,4.6C139,415.4,149.4,417.1,160.1,410.8z"/>
		<g id="XMLID_47_">
			<path id="XMLID_57_" fill="#F79029" d="M87.9,474.9c1.9-1.4,4-2.5,6.1-3.3c2.2-0.8,4.5-1.3,6.7-1.6c2.3-0.2,4.6-0.1,6.9,0.2
				c2.3,0.4,4.5,1,6.6,1.9c2.1,0.9,4,2.3,5.8,3.8c1.7,1.4,3.3,3.1,4.7,5c1.4,1.9,2.5,3.9,3.3,6c0.8,2.2,1.3,4.4,1.5,6.7
				c0.2,2.3,0.2,4.6-0.1,6.9c-0.4,2.3-1.1,4.4-2,6.6c-0.9,2.1-2.1,4.1-3.6,5.9c-1.4,1.7-3,3.5-4.9,4.8c-1.9,1.4-4,2.5-6.1,3.3
				c-2.2,0.8-4.5,1.2-6.7,1.4c-2.3,0.2-4.6,0.3-6.9-0.1c-2.3-0.4-4.5-1.1-6.6-2c-2.1-0.9-4.1-2-6-3.5c-1.8-1.4-3.3-3.1-4.7-5.1
				c-1.4-1.9-2.6-3.9-3.4-6c-0.8-2.2-1.2-4.5-1.5-6.7c-0.2-2.3-0.1-4.6,0.3-6.9c0.4-2.3,0.8-4.6,1.7-6.7c0.9-2.1,2.3-4,3.7-5.8
				C84.5,478,86,476.3,87.9,474.9z"/>
			<path id="XMLID_56_" fill="#FFEFD5" d="M89.2,476.7c2.1-1.5,4.5-2.4,6.9-3.2c2.4-0.8,4.9-1.1,7.4-1.1c2.5,0,5.1,0,7.5,0.7
				c2.4,0.8,4.9,1.7,6.9,3.2c2,1.5,3.6,3.6,5.1,5.7c1.5,2.1,2.6,4.4,3.4,6.8c0.8,2.4,0.8,4.9,0.7,7.5c0,2.5,0.4,5.2-0.4,7.6
				c-0.8,2.4-1.9,4.8-3.4,6.9c-1.5,2-3.6,3.6-5.7,5.1c-2.1,1.5-4.5,2.4-6.8,3.1c-2.4,0.8-4.9,1.4-7.4,1.4c-2.5,0-5.1-0.2-7.5-1
				c-2.4-0.8-4.9-1.7-6.9-3.2c-2-1.5-4-3.3-5.5-5.4c-1.5-2.1-2-4.8-2.8-7.1c-0.8-2.4-1.3-4.9-1.3-7.4c0-2.5,0.2-5.1,1-7.5
				c0.8-2.4,2.3-4.5,3.8-6.5C85.5,480.3,87.1,478.2,89.2,476.7z"/>
			<path id="XMLID_55_" fill="#FBAE25" d="M85.9,507.4c1.8-0.3,14.7-8.9,14.6-10.6c0,0-15.8-2.8-17.5-2.4
				C81.2,494.7,84,507.7,85.9,507.4z"/>
			<path id="XMLID_54_" fill="#FBAE25" d="M101.5,495.7c-1.5-2.8-8.3-15.6-10-16.1c-1.7-0.6-9.9,10.5-8.5,11.8
				C84.4,492.7,102.3,497.3,101.5,495.7z"/>
			<path id="XMLID_53_" fill="#FBAE25" d="M113.7,513.5c-0.1-3-8.2-14.8-10.2-14.4c-2,0.3-2.8,15.3-1.6,17.9
				C102.8,518.7,113.8,516.6,113.7,513.5z"/>
			<path id="XMLID_52_" fill="#FBAE25" d="M98.3,515.6c1.4-1.2,4.2-15.7,3.2-16.3c-1-0.6-13.6,8.7-14.3,10.5
				C86.6,511.6,95.9,517.7,98.3,515.6z"/>
			<path id="XMLID_51_" fill="#FBAE25" d="M121.6,487.6c-6.2,2.7-16.1,7.4-15.8,8.6c0.2,0.7,14.5,2.7,17.3,3.6
				C126.3,500.8,124,486.5,121.6,487.6z"/>
			<path id="XMLID_50_" fill="#FBAE25" d="M105.4,497.7c-0.9,1.5,7.9,10.3,11.2,14.2c1.2,1.4,8.5-6.5,6.9-9
				C121.7,500.1,106.3,496.2,105.4,497.7z"/>
			<path id="XMLID_49_" fill="#FBAE25" d="M93.9,478.1c2.1,4.7,7.1,16.8,9.1,17.2c2,0.4,4.4-16.7,2.6-19
				C103.8,473.9,92.6,475.3,93.9,478.1z"/>
			<path id="XMLID_48_" fill="#FBAE25" d="M105.7,493.1c-0.3,1.2-0.7,1.8,0.6,1c1.4-0.8,9.4-5.1,11.2-6c1.8-0.9,5.2-3,1.9-6.7
				c-3.2-3.7-6.8-4.8-9.1-5.1c-2.3-0.3-2.4,2.3-2.6,4.2C107.6,482.3,106.2,490.8,105.7,493.1z"/>
		</g>
		<g id="XMLID_36_">
			<path id="XMLID_46_" fill="#F79029" d="M167.6,441.5c0.8,2,1.4,4,1.6,6c0.3,2.1,0.2,4.2,0,6.2c-0.3,2.1-0.9,4.1-1.7,6
				c-0.8,1.9-1.8,3.8-3.1,5.4c-1.3,1.6-2.9,3-4.5,4.3c-1.6,1.2-3.4,2.2-5.4,3c-2,0.8-4,1.4-6,1.7c-2.1,0.3-4.2,0.2-6.2-0.1
				c-2.1-0.3-4.1-0.8-6-1.6c-1.9-0.8-3.7-1.9-5.3-3.2c-1.6-1.3-3.1-2.7-4.4-4.4c-1.2-1.6-2.4-3.4-3.2-5.3c-0.8-2-1.3-4-1.6-6
				c-0.3-2.1-0.1-4.2,0.2-6.2c0.3-2.1,0.7-4.1,1.5-6c0.8-1.9,1.9-3.7,3.2-5.3c1.3-1.6,2.6-3.2,4.3-4.5c1.6-1.2,3.5-2.2,5.4-3
				c2-0.8,4-1.4,6-1.7c2.1-0.3,4.2-0.1,6.2,0.1c2.1,0.3,4,0.9,6,1.7c1.9,0.8,3.8,1.7,5.5,2.9c1.6,1.3,3,2.8,4.3,4.5
				C165.6,437.8,166.8,439.5,167.6,441.5z"/>
			<path id="XMLID_45_" fill="#FFEFD5" d="M165.7,442.2c0.9,2.2,1.2,4.5,1.3,6.7c0.2,2.3-0.1,4.5-0.6,6.7c-0.5,2.2-1,4.5-2.2,6.4
				c-1.2,1.9-2.5,3.9-4.3,5.4c-1.7,1.4-3.9,2.4-6.1,3.3c-2.2,0.9-4.4,1.4-6.6,1.6c-2.3,0.2-4.5-0.4-6.7-0.9c-2.2-0.5-4.6-0.8-6.6-2
				c-1.9-1.2-3.8-2.7-5.3-4.5c-1.4-1.7-2.4-3.9-3.3-6.1c-0.9-2.2-1.1-4.4-1.3-6.7c-0.2-2.3-0.2-4.6,0.3-6.8c0.5-2.2,1.3-4.4,2.5-6.4
				c1.2-1.9,2.5-3.9,4.3-5.4c1.7-1.4,3.7-2.8,5.9-3.7c2.2-0.9,4.6-0.8,6.8-0.9c2.3-0.2,4.6-0.1,6.8,0.4c2.2,0.5,4.4,1.3,6.4,2.5
				c1.9,1.2,3.4,3,4.9,4.7C163.4,438.3,164.8,440,165.7,442.2z"/>
			<path id="XMLID_44_" fill="#FBAE25" d="M139.4,432.8c-0.1,1.7,4.7,14.8,6.2,15.1c0,0,5.8-13.3,5.9-14.9
				C151.6,431.4,139.5,431.1,139.4,432.8z"/>
			<path id="XMLID_43_" fill="#FBAE25" d="M146.4,449c2.8-0.7,15.4-4,16.3-5.4c0.9-1.4-7.2-10.9-8.6-9.9
				C152.7,434.6,144.9,449.3,146.4,449z"/>
			<path id="XMLID_42_" fill="#FBAE25" d="M128.2,455.9c2.7,0.6,14.7-4.1,14.8-5.9c0.2-1.8-12.9-5.7-15.4-5.2
				C125.9,445.3,125.4,455.3,128.2,455.9z"/>
			<path id="XMLID_41_" fill="#FBAE25" d="M129.6,442c0.7,1.4,12.9,7,13.6,6.3c0.7-0.7-4.7-13.8-6.2-14.7
				C135.6,432.5,128.3,439.4,129.6,442z"/>
			<path id="XMLID_40_" fill="#FBAE25" d="M149.3,468.3c-1.1-6-3.1-15.7-4.2-15.7c-0.6,0-5.5,12.2-6.8,14.4
				C136.7,469.6,149.7,470.7,149.3,468.3z"/>
			<path id="XMLID_39_" fill="#FBAE25" d="M143.9,452c-1.1-1.1-10.7,4.8-14.8,6.8c-1.5,0.8,3.9,8.9,6.4,8
				C138.3,465.8,145,453.1,143.9,452z"/>
			<path id="XMLID_38_" fill="#FBAE25" d="M163.4,446c-4.5,0.9-16.2,2.7-17,4.4c-0.8,1.7,13.7,7.4,16.1,6.3
				C165,455.6,166.2,445.5,163.4,446z"/>
			<path id="XMLID_37_" fill="#FBAE25" d="M147.8,453.2c-1-0.5-1.4-1-1,0.4c0.4,1.4,2.5,9.3,2.9,11.1c0.4,1.7,1.5,5.2,5.4,3.1
				c3.9-2.1,5.7-5,6.4-6.9c0.7-1.9-1.6-2.6-3.1-3.1C156.9,457.1,149.7,454.1,147.8,453.2z"/>
		</g>
		<g id="XMLID_11_">
			<path id="XMLID_35_" fill="#EEBC7F" d="M94.4,431.5c-2.9,2.2-4.7,6-5.2,9.6c-0.8,5.2,1.2,11.8,4.3,16c1.3,1.7,1.7,2.4,3.8,2.4
				c2.7,0,5.2-0.7,7.8-1.2c1.2-0.2,4.4-0.3,5.3-1.2c0.9-0.9,0.8-4.4,1.2-5.8c0.7-2.9,1.5-5,3.4-7.3c1.9-2.3,4.1-3.3,2.2-6.5
				c-2.1-3.5-5.3-7.4-8.7-9.7c-2.5-1.7-5.1-1.4-7.6-0.3C98.2,428.7,96.8,429.7,94.4,431.5z"/>
			<path id="XMLID_34_" fill="#E0845F" d="M97.9,454.8c0.2-5.3,0.8-11.2,3.2-16c1.3-2.7,3.1-5.2,4.7-7.7c0.6-1,1.6-2.2,2.1-3.5
				c-2.3-1.3-4.8-1.1-7.1-0.1c-2.7,1.2-4.1,2.1-6.5,3.9c-2.9,2.2-4.7,6-5.2,9.6c-0.8,5.2,1.2,11.8,4.3,16c1.3,1.7,1.7,2.4,3.8,2.4
				c0.2,0,0.3,0,0.5,0C97.9,457.9,97.9,456.3,97.9,454.8z"/>
		</g>
		<g id="XMLID_4_">
			<path id="XMLID_9_" fill="#EEBC7F" d="M149.3,506.5c3,0.8,6.2-0.1,8.6-1.8c3.4-2.4,6-7.6,6.6-12.1c0.2-1.9,0.3-2.6-0.9-4
				c-1.6-1.9-3.6-3.3-5.4-4.8c-0.8-0.7-2.8-3-3.9-3.1c-1.1-0.1-3,1.9-4,2.4c-2.1,1.1-3.8,1.7-6.2,1.7c-2.5,0-4.4-1-5,2.1
				c-0.7,3.5-1.1,8-0.3,11.7c0.5,2.7,2.3,4.4,4.4,5.6C145.4,505.3,146.8,505.8,149.3,506.5z"/>
			<path id="XMLID_8_" fill="#E0845F" d="M160.5,490.7c-3.2,2.8-6.9,5.8-11.1,6.8c-2.3,0.6-4.8,0.8-7.2,1c-0.9,0.1-2.2,0.1-3.3,0.5
				c0.6,2.4,2.3,4,4.3,5.1c2.3,1.2,3.7,1.7,6.1,2.4c3,0.8,6.2-0.1,8.6-1.8c3.4-2.4,6-7.6,6.6-12.1c0.2-1.9,0.3-2.6-0.9-4
				c-0.1-0.1-0.2-0.2-0.3-0.3C162.3,489,161.4,489.9,160.5,490.7z"/>
		</g>
	</g>
	<g id="XMLID_2_">
		<path id="XMLID_7635_" fill="#F8E2D2" d="M488,401.1c-2.9-2.3-3-4.5-1.3-7.4c1.8-3,4.6-5,6.5-7.8c1.7-2.5,4.8-5.3,2-8.2
			c-2.7-2.8-6.3-1.5-9.5,0.2c-1.9,1.1-3.5,2.7-4.6,4.5c-1.2,1.8-2.4,3.7-3.3,5.7c-2.4,5.2-6.7,6.9-12,6.6
			c-5.6-0.3-10.7,0.9-15.1,4.7c-4.1,3.6-8.1,7.4-11,12c-3.1,4.9-6.4,9.9-6.9,16c-0.7,9.9,6.3,21.2,15.5,25.4
			c1.8,0.8,3.4,1.3,2.4,3.7c-2.5,6.2-2.6,12.5-0.7,18.8c0.6,2.1-0.1,3.3-2.2,4c-2.8,0.9-5.3,2.3-7,4.7c-4.3,6.3-7,13.2-7.2,20.9
			c-0.3,11.3,6.2,19.5,13.1,27.3c4.5,5.1,10.5,7.6,17.5,7.4c1.8-0.2,3.6-0.1,5.3-0.5c13.7-3.2,27.9-15.8,23.7-37
			c-1.5-7.6-4.3-14.3-11.4-18c-6.4-3.3-12.8-6.8-20.2-7.2c-1.8-0.1-2.6-1.1-3.3-2.6c-2.9-6.3-0.8-12.3,1.1-18.3
			c0.4-1.4,1.7-1.5,3-1.5c2.9,0,5.7,0.2,8.6-0.1c5.9-0.7,11.9-1.4,15.3-7.1c3.1-5.1,5.7-10.5,8.5-15.7
			C500.1,421.7,496,407.4,488,401.1z M462.5,485.9c6.3,1.3,11.8,4.3,16.6,8.4c4.6,4,4,9.6,4.6,16.1c0.4,4.2-1.4,8.3-4.5,12.4
			c-7.4,9.5-19,7.9-26.5,0.8c-8.4-7.9-9.6-17.9-6.8-28.6C447.2,489.9,456.8,484.7,462.5,485.9z M477.4,442.9
			c-0.4,0.4-0.9,0.7-1.3,0.9c-9.4,5.2-25.7,0.8-30.6-8.6c-2.6-5-2.9-10.6,0.2-15.3c4.9-7.4,10.3-14.5,20.2-15.7
			c6.2-0.7,11.9,0.9,16.7,4.4c4.6,3.4,4,9.2,4.6,13.8C486.9,431.1,483.4,437.6,477.4,442.9z"/>
		<path id="XMLID_7632_" fill="#F8E2D2" d="M352.1,473.6c0.6-11.4-0.1-22.9-0.4-34.3c-0.2-10.2-1.2-20.6-3-30.8
			c-1.8-10.3-7.2-15.8-17-17.1c-11.7-1.6-21.8,2.3-29.8,11c-2.4,2.6-1.9,6.5,0.7,8.3c3,2.1,5.5,1.4,7.8-2c4.5-6.5,11.1-8.5,18.4-8
			c5.3,0.4,8.7,4.1,9.9,9c1.5,6.1,2.7,12.3,2.5,18.6c0,1.5,0.1,3,0,4.5c-0.2,3.9-0.8,4.3-4.4,2.7c-2.5-1.1-5-2.4-7.6-2.9
			c-11.8-2.1-18.8-0.6-25.5,10.9c-3,5.1-4.4,10.8-5.3,16.7c-0.4,2.8-0.2,5.4,0.8,8c3.2,8.4,15.8,16.1,24.6,14.9
			c4.2-0.6,8.1-2.2,11.9-4.2c7.2-3.9,7.2-4,7.2,4.2c0,3,0.6,5.9,3.9,6.3c3.6,0.4,4.7-2.5,5.4-5.5C353,480.4,351.9,477,352.1,473.6z
			 M338.6,464.8c-5.7,5.3-11.3,10.5-19.6,7.3c-11.3-4.3-12-6.3-8.8-18.6c1.7-6.7,6.9-10.1,13.6-11.2c7.1-1.2,12,2.1,15.9,7.5
			c1.4,2,1,4.5,0.9,6.9C340.5,459.4,341.4,462.1,338.6,464.8z"/>
		<path id="XMLID_7628_" fill="#F8E2D2" d="M258.8,389.8c6.5-1.8,12.1-0.6,16.6,4.7c2.4,2.8,2.6,6.4,3.7,9.8
			c0.6,1.9,1.6,3.3,2.9,3.8c1.9,0.8,3.8,0.3,5.7-0.9c2.3-1.4,3.5-6.6,1.2-10.5c-6-10.1-14.6-15.8-24.9-16.4
			c-10.1,0.2-17.6,3-23.6,9.2c-5.5,5.7-9.4,12.4-11.9,19.8c-1.6,4.7-1.8,9.9,0.5,14.4c3.7,7.2,7.5,13.9,17.9,13.7
			c4.1-0.1,8.4,0.3,12.6,0c5.4-0.5,9.6,1.2,12.4,6c1.2,2,2.7,3.8,3.8,5.8c3.8,6.9,1.4,13.2-2.2,19.3c-3.4,5.7-8.4,8.5-15.1,7.6
			c-4.5-0.6-8.9-1.5-12.3-4.8c-2.9-2.8-1.6-6.3-1.4-9.7c0.2-3-2.2-5.2-5.2-5c-3.8,0.2-7.2,5-6.5,8.8c1.8,9.8,8.4,15.4,17.2,18.5
			c6.5,2.3,13.5,4.6,20.2,0.9c8.7-4.8,14.9-12.2,16.5-21.9c1.5-8.5,0.3-9.4-2.2-17.3c-1.6-5-3.2-7.2-5.9-10.4
			c-2.8-3.3-5.5-4.2-9.6-5c-5.8-1.2-11.7-0.4-17.5-0.7c-9.1-0.4-13.4-4.9-13.4-13.9C238.2,404.6,247.6,392.9,258.8,389.8z"/>
		<path id="XMLID_7624_" fill="#F8E2D2" d="M418.3,437.6c-0.2-6.2-1.2-12.3-0.7-18.6c0.4-5-4.1-7.1-8.4-4.4c-2.5,1.5-2.4,3.7-2.5,6
			c-0.2,11.3,4,22.3,1.8,33.7c-0.4,1.9,0.5,4.8-1.6,5.5c-2.1,0.7-3.4-1.9-4.5-3.5c-5-7.5-10.9-14.3-16.6-21.2
			c-2.6-3.2-5.3-6.2-8.1-9.2c-3.7-3.9-8.7-5-11.1-1.9c-2.3,2.9-4.4,6.8-3.6,10.4c1,4.6,1.1,9.2,1.8,13.7c1.8,11.1,4.4,22.2,4.3,34.6
			c-0.1,0.8-0.2,2.7-0.4,4.6c-0.3,2.7,1.4,4,3.5,4.9c2.3,1.1,3.9-0.2,5.2-2c1.9-2.8,1.9-5.8,1.4-9c-2.1-13.7-2.2-27.7-6.1-41.2
			c-0.3-1-0.6-2.3,0.7-2.9c1-0.4,1.8,0.4,2.5,1c2.9,2.2,4.9,5.1,7.2,7.8c7.5,9.2,16.3,17.6,20,29.5c1.4,4.5,3.4,5.3,7.8,4.3
			c5.8-1.3,8.4-3.7,7.9-8.1C417.6,460.2,418.7,448.9,418.3,437.6z"/>
		<path id="XMLID_7623_" fill="#F8E2D2" d="M530.8,439.9c1.6-2.7,3.5-4.7,6.4-6.1c2.9-1.3,6-1.8,9.1-2.4c12.7-2.5,12.7-2.5,17.7,9.2
			c0.5,1.1,0.8,2.3,2.5,2.3c2-0.1,6.2-3.8,6.2-5.8c0-8.2-7.4-17.8-15.9-16.8c-4.5,0.6-8.8,1.8-13.1,2.9c-0.9,0.2-1.9,0.8-2.7-0.1
			c-0.9-0.9-0.6-2-0.2-3.1c0.8-2.2,2.7-3.4,4-5.1c1.8-2.4,3.2-5.2,1.4-7.9c-1.8-2.6-4.8-2.8-7.8-2c-1.9,0.5-2.7,1.8-3.6,3.5
			c-0.6,1.1-3.1,6.1-3.8,7.2c-1.3,1.9-4.4,8.5-7.7,14.6c-6.9,12.9-12.1,26.6-19.2,39.4c-1.1,2.4-2.9,5,0,7.3
			c2.6,2.2,6.5,1.6,9.1-1.3c2-2.2,3.7-4.7,4.9-7.5C521.9,458.8,525.5,449,530.8,439.9z"/>
		<path id="XMLID_6803_" fill="#F8E2D2" d="M565.1,387.4c7.5-0.4,13.5-4,15.9-6.2c3.2-2.9,5.3-6.5,5.6-7.1c3-6.1,3.7-10.5,1.1-17.8
			c-1.7-4.5-5.4-7.7-9.1-10.3c-6.9-4.8-15.1-6.6-23.3-3.8c-9.1,3.2-16.4,21.1-12.9,30.1C546.1,381.5,554.6,387.9,565.1,387.4z
			 M563,350.3c10,0.1,17.4,6.7,17.3,15.6c0,6.2-7.2,13-13.7,12.8c-8.1-0.2-15.5-7.4-15.4-14.9C551.4,357.1,557.4,350.2,563,350.3z"
			/>
		<path id="XMLID_6802_" fill="#F8E2D2" d="M621.8,445.9c-4-6.9-8.3-14.4-12.8-21.7c-3.7-6-7.2-12.1-10.1-18.4
			c-1.3-2.9-4.3-4.1-7.2-3.2c-3.1,0.9-5.3,4-4.4,6.5c0.5,1.4,1.4,2.8,2.2,4.1c5.3,9,12.5,17.2,16.1,26.7c3.3,8.7,10.2,16.1,13.1,25
			c0.6,1.7,2.1,3.5,4.8,3.4c2.7-0.2,4.6-1.8,5.9-3.6c1.2-1.7,0.3-3.5-0.8-4.9C625.3,455.6,623.5,451.1,621.8,445.9z"/>
		<path id="XMLID_7641_" fill="#F8E2D2" d="M684,466c0.9-22.3,1.5-46.7-6.3-74c-2.1-7.5-7.6-12.5-12.5-14.5
			c-6-2.4-12.4-1.6-18.5,0.4c-0.2,0.1-0.5,0.2-0.7,0.2c-4.1,1.4-7.3,3-10.5,5.5c-0.9,0.7-1.7,1.5-2.6,2.2c-0.1,0.1-0.3,0.3-0.4,0.4
			c-6.6,6.3-8.6,15.8-6,24.7c3,10.4,13.9,20.4,29.1,14.9c3.1-1.1,4.9-1.8,7.9-3.4c3.1-1.7,3.2-4.6,2.7-7c-0.3-1.6-2.3-3.4-4.3-3.5
			c-4.3-0.2-3.5,1.8-8,4.5c-2.5,1.5-7.7,1.9-9.5,1.3c-9.7-3.2-9.6-7.9-9.3-15c0.5-9.8,8.2-14.2,16.4-16.3c2.8-0.7,5.6-0.8,7.9-0.3
			c4.5,1,6,3.9,8.4,8.1c5.2,8.8,12.3,56.8,7,76.8c-0.8,2.8-1.3,4-4.2,2.4c-4.5-2.4-9.2-4.2-14.3-3.7c-8.1-0.7-13.7,3.1-17.8,9.5
			c-4.9,7.7-8.5,16.3-6,25.1c3,10.4,16.9,21.6,31.5,14.7c3.1-1.5,6.1-3,9.1-4.6c2.3-1.2,3.4-0.4,3.4,2.1c0,1.9-0.1,3.8,0,5.7
			c0.1,2.6,1.3,4.7,3.9,5c2.6,0.3,3.9-1.7,4.6-3.9c0.5-1.5,0.7-3.2,0.6-4.8C685.4,501,683.1,490.4,684,466z M675,496.7
			c-0.9,5.5-14.6,16.8-22.5,13.7c-8.1-3.2-10.8-6.1-10-13.8c1-9.3,7-15.5,15.2-16.5c7-0.8,11.7,2.4,15.6,7.5
			C674.7,489.5,675.5,493.4,675,496.7z"/>
	</g>
</g>
<g>
	<g>
		<path fill="#F8E2D2" d="M534.3,136.7c-3.5,5.8-9.6,8-15.3,12.3c1.4,5.4,6.2,9,9.3,13.6c3.2,4.7,10.7,10.8,9.4,15.2
			c-0.6,2.1-0.6,2.5-2.2,4.3c-2.5,2.8-4.6,2.8-6.8-0.3c-2.7-3.8-5.2-7.8-7.7-11.7c-2.9-4.6-5.8-9.1-8.5-13.8c-1.7-2.8-3.8-4-7.2-3.8
			c-7.2,0.4-14.2-0.7-21.2-2.3c-9.7-2.2-17.1-7.6-22.6-15.5c-3.3-4.7-7.6-8.9-9.2-14.8c-0.7-2.6-2-5.3-2.1-7.9
			c-0.8-14,1.7-27.4,7.6-40.1c0.6-1.2,1.1-2.5,2-3.4c7-7.1,14.3-13.9,23.8-17.5c3-1.1,2.6-0.6,5.7-1.4c1-0.2,7-0.3,8-0.1
			c3.8,0.9,6.1,0.8,9.9,1.7c10.6,2.5,18.6,9,25.4,17c1.8,2.2,2.9,5.1,3.9,7.8c2.3,6.4,5.9,12.7,6.4,19.5c0.2,2.6,0,17.3-0.4,19
			c-0.6,2.6-1.1,5.1-1.9,7.6c-0.5,1.6-1.5,3.1-2.5,4.5C536.3,129.6,536.6,133,534.3,136.7z M515,137.7c6.2-2.4,10.8-6,13.7-11.5
			c4.3-8.1,4.5-16.8,3.9-25.7c-0.7-12.7-5.9-23.4-15-32.2c-3.9-3.8-8.6-3.8-14-6c-5.8-2.4-8.1-0.2-13.1,0.7
			c-4.6,0.8-3.8,0.2-8.3,0.4c-5.8,0.3-16.7,11.9-17.7,17.6c-0.8,4.3-1.6,8.6-2.3,13c-0.3,1.8,0,3.8-0.1,5.6c-0.1,2,0.2,4.1-0.4,6
			c-0.9,3.1-0.8,6,0.1,9c2.3,7.3,6.6,13.3,11.7,18.9c7.4,8.1,20.7,11.6,31.3,7.6c-0.8-2.9-1.4-5.9-2.4-8.8
			c-2.7-7.9-5.3-15.9-13.6-20c-0.3-0.1-0.5-0.3-0.7-0.5c-2.2-2.1-2.4-3.7-0.8-6.2c1.5-2.4,3.3-3,6-1.9c1.3,0.6,2.5,1.4,3.8,2.2
			c8.2,5.3,13.3,12.5,14.2,22.5c0.1,1.4,0.5,2.9,1.1,4.2C513.2,134.1,514.1,135.7,515,137.7z"/>
		<path fill="#F8E2D2" d="M315.2,83.5c0.8-0.2,1.5-0.3,2.1-0.5c3.5-1.7,6.9-3.6,10.5-5.2c8.2-3.7,19.7-3.1,25.8,6.2
			c2.4,3.7,5.5,6.8,8.1,10.3c1,1.4,1.7,3,2.2,4.7c2.8,10.8,1.2,21.2-3,30.9c-0.1,0.3-4.4,6.1-4.6,6.3c-5.8,5.8-6.8,7.3-14.3,11.3
			c-6.5,3.5-12.6,1.8-18.8-0.9c-1.9-0.8-3.8-1.6-5.8-1.8c-3.4-0.4-4.5,0.9-4.2,4.3c0.6,9.6,1.4,19.3,1.9,28.9
			c0.3,6.1,0.4,12.3,0.6,18.4c0.1,3.8-3.3,10-6.3,11c-3.7,1.2-6.8-1-6.6-4.9c0.1-1.3,0.4-2.6,0.8-3.9c1.1-3.5,2-6.9,0.9-10.7
			c-0.6-1.9,0.6-4.3,0.7-6.5c0.3-7,0.6-14,0.7-21c0-1.1-0.4-2.3-0.8-3.4c-1.7-5.9-1.9-11.8-1.2-17.8c0.6-4.8,1.2-9.6,1.1-14.4
			c-0.1-5.6-1.3-11.2-1.6-16.9c-0.4-5.8-0.5-11.7-0.4-17.5c0.1-4.5,0.9-9,1.3-13.5c0.4-3.8,1.6-7.2,5.2-9.1c3.5-1.9,6.5-0.1,6.4,3.8
			C315.9,75.5,315.5,79.4,315.2,83.5z M354.5,111.4c-0.8-3.2-1.9-8.8-3.7-14.2c-1.7-4.9-6.3-7.1-10.4-9.6c-3-1.9-6-0.4-8.9,0.4
			c-6.5,1.7-11.3,6.1-15.1,11.4c-2.9,4-1.9,8.6-1.3,13.1c0.5,4.2,0.9,8.4,0.5,12.6c-0.5,4.8,0.2,6.7,4.7,8.5c2.6,1,5.3,1.8,7.7,3.1
			c4.4,2.3,8.5,2,12.4-0.7c2.3-1.6,4.1-3.7,6.4-5.3C352.7,126.6,354.1,120.5,354.5,111.4z"/>
		<path fill="#F8E2D2" d="M391.3,108.3c2.4-4.4,4.8-5.4,7.7-7.2c2.3-1.4,3.9-2.9,6.6-2.6c3.3,0.4,6.7,0.3,9.9,1.1
			c4.5,1.1,7.9,3.9,10.8,7.8c3.9,5.4,7.4,10.9,8,17.7c0,0.3,0.1,0.6,0.2,0.9c0.3,9.3,0.6,18.6,1,28c0,1.3,0,2.7,0.6,3.7
			c2.5,4.4,2.7,9.2,3,14c0.1,1.1-0.4,2.3-0.7,3.4c-0.5,1.9-2,3.3-3.8,2.9c-1.5-0.3-3.2-1.3-4.1-2.5c-0.9-1.2-1.1-3-1.3-4.6
			c-0.8-7-0.8-14.1-2.2-20.9c-1.7-8.3-2-16.8-3.2-25.1c-0.4-2.7-1.6-5.3-2.7-7.8c-2.2-5.3-7.3-6.4-12-7.7c-1.3-0.4-3.3,0.9-4.6,1.9
			c-6.3,4.7-8.3,11.6-9.4,19.1c-1.4,9.3,1,18.3,1.5,27.5c0.2,3.2,0.9,6.4,1.4,9.5c0.5,3.1-2,6.2-5.6,7.1c-2.5,0.6-5.3-1.4-5.7-4.7
			c-0.6-4.8-0.8-9.6-1.1-14.4c-0.1-1.6-0.3-3.2-0.5-4.8c-0.7-5.6-1.6-11.3-2.2-16.9c-1.4-13.4-2.7-26.8-3.9-40.1
			c-1.1-12.1-2.3-24.2-3.1-36.3c-0.8-11.3-1.2-22.7-1.8-34c-0.1-2.7,3.5-6.7,6.3-7c2.7-0.3,5.9,2.4,6.1,5.7c0.1,2.9-0.2,5.8-0.4,8.7
			c0,0.7-0.2,1.4-0.1,2.2c0.3,10.4,0.5,20.7,0.8,31.1c0.3,8.8,0.2,17.6,1,26.3C388.1,95.9,389.9,101.6,391.3,108.3z"/>
		<path fill="#F8E2D2" d="M275.7,106.7c2-6.3,0.7-12.5,0.1-18.7c-0.3-2.8-0.9-5.5-1.3-8.2c-1.8-10.3-9.9-14.1-18.7-11.7
			c-3.2,0.8-6.3,2.3-9.2,3.9c-1.4,0.8-2.4,2.5-3.3,3.9c-2.6,4-5,4.9-8.1,2.6c-2.6-1.9-3-6.7-0.6-9.4c5-5.6,11.4-9,18.7-10.8
			c5.5-1.4,10.9-1.3,16.4,0c6.7,1.6,10.7,6.3,12.7,12.3c1.7,5,2.3,10.5,3,15.8c0.8,6.1,1.3,12.2,1.9,18.3c0.1,0.7,0.3,1.4,0.3,2.2
			c0.2,15.5,0.5,31,0.5,46.5c0,2.4-0.7,4.9-1.7,7.1c-0.5,1.2-2.7,2.7-3.7,2.4c-1.6-0.4-3.1-2-3.9-3.5c-0.6-1.3-0.1-3.1-0.2-4.7
			c-0.1-2.2-0.2-4.5-0.3-7.4c-4.5,2.3-8,4.3-11.7,6c-5.8,2.7-12,4.6-18.2,2.1c-7.3-3-13.3-7.9-16.9-15.2c-0.6-1.3-1-2.8-1-4.2
			c0.1-9.7,2.6-18.8,8.5-26.7c6.2-8.2,14.7-9.5,24-7.4C267.3,102.8,271.2,104.9,275.7,106.7z M257.4,145.3c5.2,0.4,9-2.1,12.4-5.5
			c1-1,1.8-2.6,3-3.1c3-1.2,3.2-3.5,3.2-6.1c0-1.9-0.7-3.8-0.5-5.6c0.5-3.5-1.7-5.5-3.6-7.9c-2.1-2.6-4.6-4.2-7.7-4.7
			c-5.8-0.9-11.4,0-16.2,3.6c-6.8,5.1-7.7,13-6.9,20.2c0.5,4.9,6.6,6.5,11.1,8.2C253.9,145.1,255.7,145.1,257.4,145.3z"/>
		<path fill="#F8E2D2" d="M120.5,163.2c2.1-13.9,1.4-27.6,1-41.6c-3.2-0.6-5.9-1-8.6-1.5c-4.7-1-6.5-4.8-4.4-8.9
			c1.3-2.4,3.1-3.4,5.8-2.7c2.2,0.6,4.4,1.5,7.1,2.5c0.8-1,1.5-2.1,2.4-2.9c2.4-2,5.3-2.3,7.6-0.4c2.2,1.8,4.1,1.7,6.5,0.8
			c2.3-0.9,4.6-1.9,7-2.5c3.4-0.8,10.2-1.6,9.2,3.3c-0.6,3.1-4.7,4.3-7.4,5.7c-3.5,1.8-7.2,3.1-11,4.2c-3.5,1-4.6,2-5,5.5
			c-0.1,0.9-0.1,1.8-0.1,2.6c0.4,5.8,1.3,11.5,0.2,17.4c-0.5,2.6,0.9,5.4,1.3,8.2c0.5,4.2,1.2,8.4,1.1,12.6
			c-0.1,5.4-2.3,6.7-7.6,5.9c-1.6-0.2-3.5,0.1-5.1,0.7c-7.1,2.8-13.8,2.3-20.4-1.7c-2.1-1.3-4.4-2.2-6.5-3.6C87,162.6,82,157,80,149
			c-2-8.1-4-16.4-2.9-24.7c1.1-7.7,3.8-15.2,5.9-22.8c0.4-1.4,1.2-2.7,1.5-4.1c2.6-12.6,9.1-23,17.7-32.3c4.1-4.5,8.9-6.9,15.2-6
			c4.1,0.6,8.4,0,11.9,3c3.2,2.7,3.4,5.7,0.3,8.5c-1.6,1.5-3.2,1.6-5.2,0.5c-6-3.3-14.2-1.4-18.3,4c-8.5,11.3-14,23.9-16.8,37.7
			c-0.9,4.4-3.2,8.4-2.6,13.2c0.9,6.7,1.2,13.4,2,20.1c0.5,4.3,3.1,9.7,7.3,12.8c6.8,5,14.1,6.5,22.1,5.5
			C118.9,164.2,119.5,163.6,120.5,163.2z"/>
		<path fill="#F8E2D2" d="M563.6,107.9c-0.6-13.9-1.3-29.6-1.9-45.4c-0.2-4.1,0.9-5.7,4.3-7.2c2.5-1.1,4.3-0.5,5.3,2
			c0.4,1.1,0.8,2.3,0.8,3.4c0,5.9,1.2,11.6,0,17.7c-1,5,0,10.5,0.1,15.7c0,3.5-0.1,7-0.2,10.5c0,1.6-0.4,3.2-0.2,4.8
			c1.6,10.5,1.1,21,0.1,31.5c-0.4,4.1-0.3,8.2-0.3,12.3c0,3.7,1.8,5.3,5.4,5.2c7-0.3,14-0.6,21-0.8c5.4-0.1,10.8,0,16.2,0
			c1,0,2.1-0.1,3.1,0.1c3.1,0.4,4.8,2.2,4.6,4.8c-0.2,2.7-2.6,4.6-5.6,4.4c-13.2-0.8-26.5,0.3-39.7,0.3c-4.2,0-8.3,1.1-12.5-0.2
			c-1-0.3-3.8-3.7-3.1-7c1.3-6.4,1-11.2,1.4-17C563.1,131.7,563.2,120.8,563.6,107.9z"/>
		<path fill="#F8E2D2" d="M180.9,95.1c2.6-2.3,5-4.4,7.5-6.5c1.1-1,2.2-2,3.4-2.8c8.1-6,16.2-4.9,22.7,2.8
			c4.4,5.3,6.2,13.2-1.2,13.2c-1.5,0-2.3-2-3.4-3.1c-1.4-1.3-2.6-2.8-4.1-4c-3.8-2.9-6-3-9.8-0.1c-4.2,3.2-8.3,6.4-12.3,9.9
			c-3.3,2.8-4.6,6.3-4.8,10.8c-0.5,9.8,0,19.4,0.9,29.2c0.4,4.6-0.2,9.3-0.9,13.9c-0.2,1.6-1.6,3.6-3,4.5c-4.8,2.9-8.1,0.9-8.4-4.8
			c-0.1-1-0.1-2.1,0.1-3c1.2-4.9,0.7-8.6,0.6-12.9c-0.2-12.7-0.4-25.4-0.6-38.1c0-2.8-0.3-5.6-0.3-8.3c0-2.5,0.5-4.9,0.6-7.3
			c0.1-1.6,0.3-3.2,0.1-4.8c-0.5-5,4.8-9.3,9.4-7.6c2.2,0.8,3.6,4.7,2.9,8.1c-0.4,1.7-1.1,3.3-1.6,5
			C177.9,91.7,178.1,92.3,180.9,95.1z"/>
	</g>
</g>
<g>
	<path fill="#F8E2D2" d="M403.7,280.7c1.5-2.5,2.6-2.8,4.7-4.1c0.5-0.3,2.4-0.9,2.9-1c5.1-0.4,8.2,0.5,11.6,5.2
		c3.3,4.5,4.7,9.2,4.1,14.7c-0.1,0.5-0.1,1.1,0.1,1.6c0.9,2.6,0.7,5.3,0.4,8c-0.1,0.9,0,1.9,0.4,2.7c1.3,2.5,1.3,5.2,1.6,7.9
		c0.1,1.7-1,3-2.4,3.1c-1.4,0.1-2.5-0.8-2.8-2.7c-0.6-4-1-8-1.4-12c-0.1-1,0.1-2.1-0.3-3.1c-1.1-2.7-1-5.4-1.1-8.2
		c-0.1-1.8-0.5-3.6-1-5.4c-0.9-3.7-3.9-6-7.3-6c-1.8,0-2.9,1.1-3.7,1.7c-1.8,1.9-2.2,2.7-3,5c-1.3,3.9-1.5,8-1.1,12
		c0.4,4.4,1.1,8.8,1.7,13.2c0.2,1.4-1.6,3.2-3.3,3.5c-1.3,0.2-2.8-0.9-2.9-2.5c-0.3-2.4-0.4-4.9-0.5-7.3c0-0.6,0-1.1-0.1-1.7
		c-2.4-13.4-2.9-27.1-4.5-40.6c-0.9-7.9-0.8-15.8-1.2-23.7c-0.1-1.9-0.3-3.8-0.5-5.7c-0.2-1.9,1.4-4.1,3.2-4.3
		c1.7-0.3,3.3,1.2,3.4,3.4c0.1,2.1-0.1,4.2-0.1,6.4c0.1,6.7,0.3,13.4,0.5,20.2c0.1,3.6,0.1,7.3,0.5,10.9
		C402,274.6,402.9,277.4,403.7,280.7z"/>
	<path fill="#F8E2D2" d="M296.9,286.5c-0.8,1.4-1.4,2.4-1.9,3.4c-2.1,4.9-4.2,9.8-6.4,14.6c-1.3,3-3.2,5.5-6.4,6.7
		c-1.7,0.6-3.1-0.1-3-1.8c0.3-3.7-1.2-7.2-1.7-10.7c-0.8-5.2-1.9-10.5-3.3-15.6c-0.8-2.9-2.1-5.7-3.6-8.3c-2.2-3.8-2.6-4.8,2.5-7.2
		c0.1,0,0.2,0,0.6,0c0.4,0.5,1,1.1,1.4,1.9c1,2.3,2.1,4.7,2.7,7.1c1.6,5.9,2.8,11.9,4.3,17.8c0.5,1.8,1.2,3.6,1.8,5.3
		c1.5-0.3,2-1.1,2.4-2.1c1.2-3.2,2.3-6.4,3.6-9.6c0.8-2.1,1.6-4.3,2.7-6.4c1.3-2.6,4.5-3.3,6.8-1.3c1.2,1.1,2.2,2.5,2.9,4
		c1.1,2.1,1.9,4.4,2.7,6.6c1,2.9,2.9,5,4.8,7.3c0.3,0.3,0.8,0.5,1.4,0.9c0.7-0.9,1.3-1.8,1.9-2.7c3-5.2,4.4-10.9,5.6-16.6
		c0.6-2.8,1-5.6,1.5-8.4c0.2-1.2,2.1-3.2,3.3-3.4c1.8-0.3,4,2.6,3.5,4.6c-0.1,0.2-0.1,0.5-0.3,0.7c-3.1,4.8-4,10.3-5.2,15.7
		c-0.9,3.8-2,7.5-3.1,11.2c-0.7,2.4-2.1,4.4-4,6.1c-1.2,1-2.4,1.2-3.6,0.2c-1.2-1-2.6-1.9-3.5-3.2c-1.8-2.7-3.4-5.5-5-8.3
		c-1.2-2.1-2.1-4.3-3.3-6.3C298.4,287.9,297.7,287.4,296.9,286.5z"/>
	<path fill="#F8E2D2" d="M374.7,274.3c2.5-0.3,4.6-0.6,6.7-0.9c2.1-0.3,4.2-0.6,6.3-0.7c2.1-0.1,2.4,0.4,2.6,2.5c0,0.3,0,0.6,0,1
		c-0.1,2.2-0.3,2.4-2.5,2.5c-4.2,0.3-8.5,0.6-12.8,0.9c-0.2,0.6-0.4,1.1-0.4,1.5c-0.1,5.6-0.1,11.3-0.1,16.9c0,3.6-0.3,7.3-0.2,10.9
		c0.1,2.8,0.4,5.5,0.8,8.3c0.2,1.7,1.8,2.2,3.2,1c0.6-0.5,0.9-1.3,1.4-1.9c0.8-0.9,1.9-1.6,2.9-1c0.9,0.5,1.7,1.5,1.9,2.4
		c0.7,2.5-0.4,4.4-2.8,5.2c-1.6,0.6-3.3,1-5,1.3c-2.2,0.4-5.7-2.3-6.2-4.5c-1.3-5.3-0.6-10.7-0.8-16.1c-0.1-3.9,0-7.8,0-11.7
		c0-3-0.5-6,0.3-9c0.4-1.8-0.9-2.8-2.9-2.5c-2.8,0.4-5.6,0.7-8.4,1.1c-1.1,0.1-2.3,0.1-2.9-1.1c-0.6-1.2-0.2-2.3,0.5-3.3
		c1-1.4,2.3-2,4.1-2c2.2-0.1,4.4-0.2,6.6-0.5c2.4-0.3,3.2-1.1,3.1-3.6c-0.1-4-0.4-7.9-0.5-11.9c-0.1-3.1,0.1-6.2,0.2-9.2
		c0-0.7,0.4-1.4,0.8-1.9c1.1-1.6,2.9-2.3,4.1-1.8c1.1,0.5,1.7,2.1,1.4,4c-0.4,2.5-1,5-1.2,7.5c-0.1,1.6,0.3,3.3,0.3,4.9
		c0,2.7-0.3,5.4-0.4,8.1C374.5,271.7,374.7,272.7,374.7,274.3z"/>
	<path fill="#F8E2D2" d="M329.5,242.4c-0.1-3.5,1-6.9,3.1-10c2.5-3.8,6.1-5,10.5-4.3c0.9,0.2,1.8,0.4,2.8,0.7
		c5.6,1.6,8.9,5.4,10.8,10.7c0.4,1,0,2.3,0,3.5c-0.1,3.9-3.3,6.1-4.7,9.3c-0.3,0.7-1.2,1.5-1.9,1.6c-4.1,0.6-8.1,1.9-12.3,0.3
		C332.6,252.1,329.4,248.1,329.5,242.4z M334.5,240.4c0,5.4,5.4,10.1,10,9.4c0.6-0.1,1.2-0.3,1.8-0.6c0.8-0.4,1.7-0.9,2.4-1.5
		c2.8-1.8,3.6-4.3,2.8-7.5c-1.1-4.1-4.2-6-8.1-6.7c-1.6-0.3-3.4-0.7-4.8,0.4C336.2,235.7,334.6,238.1,334.5,240.4z"/>
	<path fill="#F8E2D2" d="M347.5,271.7c0.1,2.1,0.2,4.3,0.4,6.4c0.3,3.2,0.8,6.4,1.1,9.7c0.3,3.4,0.6,6.8,0.7,10.2
		c0.1,3.6,0,7.3,0.1,10.9c0.1,1.9,0.5,3.8,0.7,5.6c0.4,3-0.5,4.3-3.4,5c-1.5,0.4-2.3,0.1-2.7-1.4c-0.4-1.5-0.5-3.1-0.4-4.7
		c0.2-2.1,0.2-4-0.3-6.1c-0.6-2.2-0.8-4.6-0.6-6.8c0.6-5.4-0.2-10.8-0.9-16.1c-0.5-4.1-1.1-8.2-1.6-12.3c-0.2-1.7,0.2-3.2,1.7-4.1
		c1.1-0.7,2.2-1.4,3.5-0.6c1.3,0.8,1.9,1.9,1.8,3.4C347.6,271,347.5,271.4,347.5,271.7z"/>
</g>
</svg>
