<?xml version="1.0" encoding="utf-8"?>
<!-- Generator: Adobe Illustrator 19.2.0, SVG Export Plug-In . SVG Version: 6.00 Build 0)  -->
<!DOCTYPE svg PUBLIC "-//W3C//DTD SVG 1.1//EN" "http://www.w3.org/Graphics/SVG/1.1/DTD/svg11.dtd">
<svg version="1.1" id="Layer_1" xmlns="http://www.w3.org/2000/svg" xmlns:xlink="http://www.w3.org/1999/xlink" x="0px" y="0px"
	 viewBox="0 0 533.6 412.2" enable-background="new 0 0 533.6 412.2" xml:space="preserve">
<g>
	<g>
		<path fill="#699F63" d="M264.3,341.6c-1.5,0-2.9-0.4-4.2-1.1l-13.3-7.9c-2-1.1-1-1.5-0.4-1.7c2.7-0.9,3.2-1.1,6-2.7
			c0.3-0.2,0.7-0.1,1,0.1l10.2,6.1c0.4,0.2,0.9,0.2,1.2,0l39.9-23.1c0.4-0.2,0.6-0.6,0.6-1.1V264c0-0.5-0.2-0.9-0.6-1.1l-39.9-23
			c-0.4-0.2-0.9-0.2-1.2,0l-39.9,23c-0.4,0.2-0.6,0.7-0.6,1.1v46.1c0,0.4,0.2,0.9,0.6,1.1l10.9,6.3c5.9,3,9.6-0.5,9.6-4v-45.5
			c0-0.6,0.5-1.2,1.2-1.2h5.1c0.6,0,1.2,0.5,1.2,1.2v45.5c0,7.9-4.3,12.5-11.8,12.5c-2.3,0-4.1,0-9.2-2.5l-10.5-6
			c-2.6-1.5-4.2-4.3-4.2-7.3V264c0-3,1.6-5.8,4.2-7.3l39.9-23.1c2.5-1.4,5.9-1.4,8.4,0l39.9,23.1c2.6,1.5,4.2,4.3,4.2,7.3v46.1
			c0,3-1.6,5.8-4.2,7.3l-39.9,23.1C267.2,341.2,265.7,341.6,264.3,341.6z"/>
		<path fill="#699F63" d="M276.6,309.8c-17.5,0-21.1-8-21.1-14.8c0-0.6,0.5-1.2,1.2-1.2h5.2c0.6,0,1.1,0.4,1.1,1
			c0.8,5.3,3.1,7.9,13.7,7.9c8.4,0,12-1.9,12-6.4c0-2.6-1-4.5-14.1-5.8c-10.9-1.1-17.7-3.5-17.7-12.2c0-8.1,6.8-12.9,18.2-12.9
			c12.8,0,19.1,4.4,19.9,14c0,0.3-0.1,0.6-0.3,0.9c-0.2,0.2-0.5,0.4-0.8,0.4h-5.2c-0.5,0-1-0.4-1.1-0.9c-1.2-5.5-4.3-7.3-12.5-7.3
			c-9.2,0-10.3,3.2-10.3,5.6c0,2.9,1.3,3.8,13.7,5.4c12.3,1.6,18.1,3.9,18.1,12.5C296.5,304.8,289.3,309.8,276.6,309.8z"/>
	</g>
	<g>
		<path fill="#699F63" d="M334.2,261.5c0,4.2-3.5,7.7-7.7,7.7c-4.2,0-7.7-3.4-7.7-7.7c0-4.4,3.6-7.7,7.7-7.7
			C330.7,253.7,334.2,257.1,334.2,261.5z M320.1,261.4c0,3.6,2.9,6.5,6.4,6.5c3.6,0,6.5-3,6.5-6.5c0-3.6-2.9-6.4-6.5-6.4
			C323,255,320.1,257.8,320.1,261.4z M323.6,257.1h3c1,0,3,0,3,2.3c0,1.6-1,1.9-1.6,2.1c1.2,0.1,1.3,0.9,1.4,2
			c0.1,0.7,0.2,1.9,0.4,2.3H328c0-0.4-0.3-2.6-0.3-2.7c-0.1-0.5-0.3-0.7-0.9-0.7h-1.5v3.5h-1.7V257.1z M325.2,260.9h1.3
			c1.1,0,1.3-0.8,1.3-1.2c0-1.2-0.8-1.2-1.3-1.2h-1.4V260.9z"/>
	</g>
	<path fill-rule="evenodd" clip-rule="evenodd" fill="#333333" d="M140.6,161.2c0-1.8-1-3.5-2.6-4.4l-42.4-24.4
		c-0.7-0.4-1.5-0.6-2.3-0.7c-0.1,0-0.4,0-0.4,0c-0.8,0-1.6,0.3-2.3,0.7l-42.4,24.4c-1.6,0.9-2.6,2.6-2.6,4.4l0.1,65.6
		c0,0.9,0.5,1.8,1.3,2.2c0.8,0.5,1.8,0.5,2.5,0l25.2-14.4c1.6-0.9,2.6-2.6,2.6-4.4v-30.7c0-1.8,1-3.5,2.6-4.4l10.7-6.2
		c0.8-0.5,1.7-0.7,2.6-0.7c0.9,0,1.8,0.2,2.5,0.7l10.7,6.2c1.6,0.9,2.6,2.6,2.6,4.4v30.7c0,1.8,1,3.5,2.6,4.4l25.2,14.4
		c0.8,0.5,1.8,0.5,2.6,0c0.8-0.4,1.3-1.3,1.3-2.2L140.6,161.2z"/>
	<path fill-rule="evenodd" clip-rule="evenodd" fill="#333333" d="M344.3,71c-0.8-0.4-1.8-0.4-2.5,0c-0.8,0.5-1.3,1.3-1.3,2.2v65
		c0,0.6-0.3,1.2-0.9,1.6c-0.6,0.3-1.2,0.3-1.8,0l-10.6-6.1c-1.6-0.9-3.5-0.9-5.1,0l-42.4,24.5c-1.6,0.9-2.6,2.6-2.6,4.4v48.9
		c0,1.8,1,3.5,2.6,4.4l42.4,24.5c1.6,0.9,3.5,0.9,5.1,0l42.4-24.5c1.6-0.9,2.6-2.6,2.6-4.4V89.5c0-1.9-1-3.6-2.6-4.5L344.3,71z
		 M340.4,195.4c0,0.5-0.2,0.9-0.6,1.1l-14.5,8.4c-0.4,0.2-0.9,0.2-1.3,0l-14.5-8.4c-0.4-0.2-0.6-0.7-0.6-1.1v-16.8
		c0-0.5,0.2-0.9,0.6-1.1l14.5-8.4c0.4-0.2,0.9-0.2,1.3,0l14.5,8.4c0.4,0.2,0.6,0.7,0.6,1.1V195.4z"/>
	<g>
		<path fill-rule="evenodd" clip-rule="evenodd" fill="#333333" d="M485.4,178.1c1.6-0.9,2.5-2.6,2.5-4.4v-11.9c0-1.8-1-3.5-2.5-4.4
			L443.3,133c-1.6-0.9-3.5-0.9-5.1,0l-42.4,24.5c-1.6,0.9-2.6,2.6-2.6,4.4v48.9c0,1.8,1,3.5,2.6,4.4l42.1,24c1.6,0.9,3.5,0.9,5,0
			l25.5-14.2c0.8-0.4,1.3-1.3,1.3-2.2c0-0.9-0.5-1.8-1.3-2.2l-42.6-24.5c-0.8-0.5-1.3-1.3-1.3-2.2v-15.3c0-0.9,0.5-1.8,1.3-2.2
			l13.3-7.6c0.8-0.5,1.8-0.5,2.6,0l13.3,7.6c0.8,0.5,1.3,1.3,1.3,2.2v12.1c0,0.9,0.5,1.8,1.3,2.2c0.8,0.5,1.8,0.5,2.6,0L485.4,178.1
			z"/>
		<path fill-rule="evenodd" clip-rule="evenodd" fill="#699F63" d="M440.2,175.8c0.3-0.2,0.7-0.2,1,0l8.1,4.7
			c0.3,0.2,0.5,0.5,0.5,0.9v9.4c0,0.4-0.2,0.7-0.5,0.9l-8.1,4.7c-0.3,0.2-0.7,0.2-1,0l-8.1-4.7c-0.3-0.2-0.5-0.5-0.5-0.9v-9.4
			c0-0.4,0.2-0.7,0.5-0.9L440.2,175.8z"/>
	</g>
	<g>
		<defs>
			<path id="XMLID_143_" d="M211.4,133.2c-1.6-0.9-3.5-0.9-5.1,0l-42.1,24.3c-1.6,0.9-2.5,2.6-2.5,4.4v48.7c0,1.8,1,3.5,2.5,4.4
				l42.1,24.3c1.6,0.9,3.5,0.9,5.1,0l42.1-24.3c1.6-0.9,2.5-2.6,2.5-4.4v-48.7c0-1.8-1-3.5-2.5-4.4L211.4,133.2z"/>
		</defs>
		<linearGradient id="XMLID_2_" gradientUnits="userSpaceOnUse" x1="226.0103" y1="151.3339" x2="187.9454" y2="228.9862">
			<stop  offset="0" style="stop-color:#41873F"/>
			<stop  offset="0.3288" style="stop-color:#418B3D"/>
			<stop  offset="0.6352" style="stop-color:#419637"/>
			<stop  offset="0.9319" style="stop-color:#3FA92D"/>
			<stop  offset="1" style="stop-color:#3FAE2A"/>
		</linearGradient>
		<use xlink:href="#XMLID_143_"  overflow="visible" fill-rule="evenodd" clip-rule="evenodd" fill="url(#XMLID_2_)"/>
		<clipPath id="XMLID_3_">
			<use xlink:href="#XMLID_143_"  overflow="visible"/>
		</clipPath>
		<g clip-path="url(#XMLID_3_)">
			<path fill="none" d="M206.3,133.2l-42.4,24.3c-1.6,0.9-2.9,2.6-2.9,4.4v48.7c0,1.2,0.7,2.3,1.5,3.2l47.5-81.2
				C208.7,132.4,207.4,132.6,206.3,133.2z"/>
			<path fill="none" d="M210.3,239.8c0.4-0.1,0.8-0.3,1.2-0.5l42-24.3c1.6-0.9,2.5-2.6,2.5-4.4v-48.7c0-1.3-0.4-2.6-1.4-3.5
				L210.3,239.8z"/>
			<linearGradient id="SVGID_1_" gradientUnits="userSpaceOnUse" x1="202.4662" y1="191.9727" x2="309.2735" y2="113.0578">
				<stop  offset="0.1376" style="stop-color:#41873F"/>
				<stop  offset="0.4032" style="stop-color:#54A044"/>
				<stop  offset="0.7136" style="stop-color:#66B848"/>
				<stop  offset="0.9081" style="stop-color:#6CC04A"/>
			</linearGradient>
			<path fill="url(#SVGID_1_)" d="M253.6,157.5l-42.3-24.3c-0.4-0.2-0.9-0.4-1.3-0.5l-47.4,81.2c0.4,0.5,0.9,0.9,1.4,1.2l42.3,24.3
				c1.2,0.7,2.6,0.9,3.9,0.5l44.5-81.4C254.4,158.1,254.1,157.8,253.6,157.5z"/>
		</g>
		<g clip-path="url(#XMLID_3_)">
			<path fill="none" d="M256,210.6v-48.7c0-1.8-0.9-3.5-2.5-4.4l-42.2-24.3c-0.5-0.3-1-0.5-1.5-0.6l46.2,79.1
				C256.1,211.4,256,211,256,210.6z"/>
			<path fill="none" d="M163.9,157.5c-1.6,0.9-2.9,2.6-2.9,4.4v48.7c0,1.8,1.3,3.5,2.9,4.4l42.4,24.3c1,0.6,2.2,0.8,3.3,0.6
				l-45.4-82.6L163.9,157.5z"/>
			<linearGradient id="SVGID_2_" gradientUnits="userSpaceOnUse" x1="160.1709" y1="124.4536" x2="257.5879" y2="124.4536">
				<stop  offset="9.191646e-002" style="stop-color:#6CC04A"/>
				<stop  offset="0.2864" style="stop-color:#66B848"/>
				<stop  offset="0.5968" style="stop-color:#54A044"/>
				<stop  offset="0.8624" style="stop-color:#41873F"/>
			</linearGradient>
			<polygon fill="url(#SVGID_2_)" points="204.9,124.3 204.4,124.6 205.1,124.6 			"/>
			<linearGradient id="SVGID_3_" gradientUnits="userSpaceOnUse" x1="160.1709" y1="186.2708" x2="257.5879" y2="186.2708">
				<stop  offset="9.191646e-002" style="stop-color:#6CC04A"/>
				<stop  offset="0.2864" style="stop-color:#66B848"/>
				<stop  offset="0.5968" style="stop-color:#54A044"/>
				<stop  offset="0.8624" style="stop-color:#41873F"/>
			</linearGradient>
			<path fill="url(#SVGID_3_)" d="M253.7,215c1.2-0.7,2.1-1.9,2.5-3.2l-46.3-79.1c-1.2-0.2-2.5-0.1-3.6,0.6l-42,24.2l45.3,82.6
				c0.6-0.1,1.3-0.3,1.9-0.6L253.7,215z"/>
			<linearGradient id="SVGID_4_" gradientUnits="userSpaceOnUse" x1="160.1709" y1="214.0814" x2="257.5879" y2="214.0814">
				<stop  offset="9.191646e-002" style="stop-color:#6CC04A"/>
				<stop  offset="0.2864" style="stop-color:#66B848"/>
				<stop  offset="0.5968" style="stop-color:#54A044"/>
				<stop  offset="0.8624" style="stop-color:#41873F"/>
			</linearGradient>
			<polygon fill="url(#SVGID_4_)" points="257.6,214.2 257.3,213.8 257.3,214.4 			"/>
			<linearGradient id="SVGID_5_" gradientUnits="userSpaceOnUse" x1="160.4909" y1="226.6511" x2="257.2775" y2="226.6511">
				<stop  offset="9.191646e-002" style="stop-color:#6CC04A"/>
				<stop  offset="0.2864" style="stop-color:#66B848"/>
				<stop  offset="0.5968" style="stop-color:#54A044"/>
				<stop  offset="0.8624" style="stop-color:#41873F"/>
			</linearGradient>
			<path fill="url(#SVGID_5_)" d="M253.7,215l-42.2,24.3c-0.6,0.3-1.2,0.5-1.9,0.6l0.7,1.5l46.7-27.1v-0.6l-1-2
				C255.6,213.1,254.9,214.3,253.7,215z"/>
			<linearGradient id="SVGID_6_" gradientUnits="userSpaceOnUse" x1="271.6261" y1="149.0317" x2="211.5455" y2="271.5961">
				<stop  offset="0" style="stop-color:#41873F"/>
				<stop  offset="0.3288" style="stop-color:#418B3D"/>
				<stop  offset="0.6352" style="stop-color:#419637"/>
				<stop  offset="0.9319" style="stop-color:#3FA92D"/>
				<stop  offset="1" style="stop-color:#3FAE2A"/>
			</linearGradient>
			<path fill="url(#SVGID_6_)" d="M253.7,215l-42.2,24.3c-0.6,0.3-1.2,0.5-1.9,0.6l0.7,1.5l46.7-27.1v-0.6l-1-2
				C255.6,213.1,254.9,214.3,253.7,215z"/>
		</g>
	</g>
</g>
</svg>
