<?xml version="1.0" encoding="utf-8"?>
<!-- Generator: Adobe Illustrator 19.2.0, SVG Export Plug-In . SVG Version: 6.00 Build 0)  -->
<!DOCTYPE svg PUBLIC "-//W3C//DTD SVG 1.1//EN" "http://www.w3.org/Graphics/SVG/1.1/DTD/svg11.dtd">
<svg version="1.1" id="Layer_1" xmlns="http://www.w3.org/2000/svg" xmlns:xlink="http://www.w3.org/1999/xlink" x="0px" y="0px"
	 viewBox="0 0 466 152" enable-background="new 0 0 466 152" xml:space="preserve">
<g>
	<g>
		<g>
			
				<linearGradient id="SVGID_1_" gradientUnits="userSpaceOnUse" x1="0.8037" y1="792.2444" x2="0.9773" y2="792.2444" gradientTransform="matrix(432 0 0 460.8 -333.8 -365010.2188)">
				<stop  offset="0" style="stop-color:#656565"/>
				<stop  offset="1" style="stop-color:#010101"/>
			</linearGradient>
			<path fill="url(#SVGID_1_)" d="M13.4,61c0,0,75,7.5,75,20V51c0,0,0-12.5-75-20v11.6V61z"/>
			
				<linearGradient id="SVGID_2_" gradientUnits="userSpaceOnUse" x1="0.8037" y1="791.8312" x2="0.9773" y2="791.8312" gradientTransform="matrix(432 0 0 460.8 -333.8 -364779.8125)">
				<stop  offset="0" style="stop-color:#656565"/>
				<stop  offset="1" style="stop-color:#010101"/>
			</linearGradient>
			<path fill="url(#SVGID_2_)" d="M13.4,101c0,0,75,7.5,75,20V91c0,0,0-12.5-75-20V101z"/>
		</g>
		
			<linearGradient id="SVGID_3_" gradientUnits="userSpaceOnUse" x1="0.8037" y1="792.924" x2="0.9773" y2="792.924" gradientTransform="matrix(432 0 0 -460.8 -333.8 365415.4063)">
			<stop  offset="0" style="stop-color:#9F1C20"/>
			<stop  offset="1" style="stop-color:#ED2224"/>
		</linearGradient>
		<path fill="url(#SVGID_3_)" d="M88.4,11v30c0,0,0,12.5-75,20V31C13.4,31,88.4,23.5,88.4,11"/>
		
			<linearGradient id="SVGID_4_" gradientUnits="userSpaceOnUse" x1="0.8037" y1="793.3372" x2="0.9773" y2="793.3372" gradientTransform="matrix(432 0 0 -460.8 -333.8 365645.8125)">
			<stop  offset="0" style="stop-color:#9F1C20"/>
			<stop  offset="1" style="stop-color:#ED2224"/>
		</linearGradient>
		<path fill="url(#SVGID_4_)" d="M13.4,71c0,0,75-7.5,75-20v30c0,0,0,12.5-75,20V71z"/>
		
			<linearGradient id="SVGID_5_" gradientUnits="userSpaceOnUse" x1="0.8037" y1="793.7505" x2="0.9773" y2="793.7505" gradientTransform="matrix(432 0 0 -460.8 -333.8 365876.2188)">
			<stop  offset="0" style="stop-color:#9F1C20"/>
			<stop  offset="1" style="stop-color:#ED2224"/>
		</linearGradient>
		<path fill="url(#SVGID_5_)" d="M13.4,141v-30c0,0,75-7.5,75-20v30C88.4,121,88.4,133.5,13.4,141"/>
	</g>
	<g>
		<path fill="#231F20" d="M112.9,119.1c1.7-7.3,3.2-14.2,4.8-21.2c5.7,1.6,11,3.9,16.6,4.6c5.6,0.7,11.4,0.3,17-0.3
			c3.2-0.3,5.4-2.8,5.8-6.3c0.3-3.3-1.4-5.8-4.2-7.2c-3.5-1.8-7.1-3.2-10.7-4.9c-4.8-2.2-9.7-4.1-14.2-6.8
			c-9.3-5.5-14.9-13.5-14.3-24.8c0.6-11.4,6.4-19.5,16.2-24.7c9.4-5,19.6-6.1,30-4.9c6.7,0.8,13.2,2.9,20.1,4.6
			c-2.1,7.9-3.9,14.7-5.6,21.2c-5.9-1.8-11.5-3.6-17.3-4.2c-4-0.4-8.4,0-12.2,1.2c-5.7,1.8-6.4,8.1-1.4,11.4
			c3.5,2.3,7.7,3.7,11.6,5.4c5.1,2.4,10.5,4.2,15.2,7.2c19.1,11.8,18,39.1-1.8,49.8c-10.3,5.5-21.4,6.8-32.8,5.8
			C128.1,124.2,120.5,122.6,112.9,119.1z"/>
		<path fill="#231F20" d="M329.2,123.4c-7.1,0-15.6,0-23.2,0c-0.6-2.1-1.2-3.9-1.9-6.4c-5.8,5.8-12.5,8-20.1,8
			c-11.7,0-20.3-6.2-23.2-16.7c-3-11,1.7-22.1,11.6-27.9c8.1-4.7,17-5.8,26.1-6.5c1.1-0.1,2.1-0.1,3.2-0.2c-0.5-4.2-2.9-6.1-8-6.5
			c-8.3-0.7-16,1.1-24,5.1c-1.6-5.6-3.1-11-4.9-17.3c6.4-1.8,12.4-4.3,18.7-5c7.7-0.8,15.7-0.8,23.3,0.5
			c12.7,2.3,20.5,12.5,21.1,26.3c0.4,9.6,0.3,19.3,0.3,28.9C328.3,111.5,328.3,118.7,329.2,123.4z M302.7,90.4
			c-4.9-0.6-9.2,0.2-13.3,2.5c-2.8,1.6-4.4,4.3-3.7,7.4c0.5,2,1.8,4.5,3.5,5.5c5.2,3,12.5-0.8,13.3-6.8
			C303,96.2,302.7,93.4,302.7,90.4z"/>
		<path fill="#231F20" d="M452.6,123.3c-7.1,0-15.6,0-23.2,0c-0.6-2.1-1.2-3.9-1.9-6.4c-5.8,5.8-12.5,8-20.1,8
			c-11.7,0-20.3-6.2-23.2-16.7c-3-11,1.7-22.1,11.6-27.9c8.1-4.7,17-5.8,26.1-6.5c1.1-0.1,2.1-0.1,3.2-0.2c-0.5-4.2-2.9-6.1-8-6.5
			c-8.3-0.7-16,1.1-24,5.1c-1.6-5.6-3.1-11-4.9-17.3c6.4-1.8,12.4-4.3,18.7-5c7.7-0.8,15.7-0.8,23.3,0.5
			c12.7,2.3,20.5,12.5,21.1,26.3c0.4,9.6,0.3,19.3,0.3,28.9C451.6,111.5,451.7,118.6,452.6,123.3z M426.1,90.3
			c-4.9-0.6-9.2,0.2-13.3,2.5c-2.8,1.6-4.4,4.3-3.7,7.4c0.5,2,1.8,4.5,3.5,5.5c5.2,3,12.5-0.8,13.3-6.8
			C426.4,96.2,426.1,93.3,426.1,90.3z"/>
		<path fill="#231F20" d="M249.1,71c-9.6-1.9-18.6-3.7-25.3,5.3c-4.2,5.7-4.2,15.8,0,21.3c6.8,9.1,16.2,7.3,26.1,5.6
			c0.9,5.9,2.6,19.3,2.6,19.3s-0.1,0-1.2,0.4c-18,4.9-39.1,1.4-48.6-9.7c-9.8-11.4-11-24.8-6.6-38.7c4.3-13.7,14.6-21.3,28.2-24.2
			c8.7-1.9,17.5-1.7,26.1,0.7c0.8,0.2,2.2,0.6,2.2,0.6S250.2,65,249.1,71z"/>
		<path fill="#231F20" d="M345.2,18.4c8.7,0,17.1,0,25.8,0c0,34.9,0,69.7,0,104.8c-8.5,0-17,0-25.8,0
			C345.2,88.5,345.2,53.6,345.2,18.4z"/>
	</g>
</g>
</svg>
